<svg xmlns="http://www.w3.org/2000/svg" fill="none" viewBox="0 0 32 32"><path fill="url(#a)" fill-rule="evenodd" d="M0 13.3A16.2 16.2 0 0 1 13.4 0v5.1c-4 1-7.1 4.2-8.1 8.2H0Zm0 5c1 7 6.4 12.5 13.3 13.7v-5.1c-4-1-7.3-4.4-8.2-8.6H0Zm26.9 0c-.9 4.3-4.3 7.7-8.5 8.6V32c7-1 12.6-6.6 13.6-13.7h-5.1Zm5-5A16.2 16.2 0 0 0 18.4 0v5c4.1 1 7.4 4.2 8.4 8.3H32Z" clip-rule="evenodd"/><defs><linearGradient id="a" x1="-39.2" x2="60.9" y1="16" y2="16" gradientUnits="userSpaceOnUse"><stop stop-color="#C500FC"/><stop offset="1" stop-color="#6919FF"/></linearGradient></defs></svg>