<svg width="400" height="126" viewBox="0 0 400 126" fill="none" xmlns="http://www.w3.org/2000/svg">
<path fill-rule="evenodd" clip-rule="evenodd" d="M137.627 52.2351C142.105 25.6463 163.119 4.67633 189.719 0.282253V20.3045C174.043 24.1466 161.637 36.4808 157.729 52.2351H137.627ZM137.377 71.8563C141.263 99.2055 162.585 120.936 189.719 125.418V105.396C173.513 101.424 160.801 88.3762 157.362 71.8563H137.377ZM242.873 71.8563C239.356 88.7478 226.144 102.009 209.415 105.65V125.59C237.072 121.521 258.918 99.5735 262.856 71.8563H242.873ZM262.606 52.2351C258.068 25.2807 236.534 4.10114 209.415 0.110596V20.0506C225.609 23.575 238.506 36.114 242.506 52.2351H262.606Z" fill="white"/>
<path fill-rule="evenodd" clip-rule="evenodd" d="M112.935 20.1874V0.110596H0V20.1874H84.8394L0 105.513V125.59H112.935V105.513H27.841L112.935 20.1874Z" fill="white"/>
<path fill-rule="evenodd" clip-rule="evenodd" d="M338.946 44.9135L287.644 0.607116L274.521 15.8016L328.478 62.3998V125.59H348.554V63.483L400 14.5468L386.163 0L338.946 44.9135Z" fill="white"/>
</svg>
